# xmcd
#
# Track frame offsets:
#  150
#  12692
#  24935
#  38395
#  51085
#  63862
#  75132
#  88892
#  100875
#  112835
#  123330
#  136725
#
# Disc length: 2005 seconds
#
# Revision: 0
# Processed by: cddbd v1.5.1PL2 Copyright (c) Steve Scherf et al.
# Submitted via: Collectorz.com_Music_Collector 6.9
#
DISCID=8307d30c
DTITLE=The 5 Royales - The 5 Royales - The 5 Royales
DYEAR=1900
DGENRE=Blues
TTITLE0=I Know It's Hard But It's Fair
TTITLE1=Miracle Of Love
TTITLE2=My Sugar Sugar
TTITLE3=When You Walked In Through The Door
TTITLE4=School Girl
TTITLE5=Get Something Out Of It
TTITLE6=Tell Me You Care
TTITLE7=Wonder Where Your Love Has Gone
TTITLE8=It Hurts Inside
TTITLE9=Mine Forever
TTITLE10=One Mistake
TTITLE11=Women About To Make Me Go Crazy
EXTD=
EXTT0=
EXTT1=
EXTT2=
EXTT3=
EXTT4=
EXTT5=
EXTT6=
EXTT7=
EXTT8=
EXTT9=
EXTT10=
EXTT11=
PLAYORDER=
